<?xml version="1.0" standalone="no"?>
<!DOCTYPE svg PUBLIC "-//W3C//DTD SVG 20010904//EN"
 "http://www.w3.org/TR/2001/REC-SVG-20010904/DTD/svg10.dtd">
<svg version="1.0" xmlns="http://www.w3.org/2000/svg"
 width="269.000000pt" height="269.000000pt" viewBox="0 0 269.000000 269.000000"
 preserveAspectRatio="xMidYMid meet">
<metadata>
Created by potrace 1.11, written by Peter Selinger 2001-2013
</metadata>
<g transform="translate(0.000000,269.000000) scale(0.100000,-0.100000)"
fill="#000000" stroke="none">
<path d="M1305 2674 c-236 -39 -460 -141 -645 -293 -184 -151 -327 -357 -410
-590 -22 -61 -39 -113 -39 -116 0 -3 -2 -18 -5 -33 -24 -108 -30 -172 -30
-297 0 -230 41 -402 145 -610 62 -125 135 -225 245 -337 211 -212 460 -337
774 -386 58 -9 322 -8 380 2 124 20 249 60 323 102 51 29 114 88 134 128 35
67 6 181 -57 228 -14 10 -66 32 -115 49 -50 17 -160 64 -245 106 -85 41 -162
76 -170 78 -8 2 -34 8 -56 13 -55 13 -160 8 -180 -9 -11 -9 -15 -26 -12 -55 2
-35 1 -40 -11 -31 -28 23 -63 121 -67 184 -4 86 17 143 73 195 25 24 60 73 79
111 95 187 226 275 541 363 253 71 332 105 414 182 183 169 182 460 -3 686
-134 164 -353 280 -613 326 -121 21 -337 23 -450 4z"/>
<path d="M1845 1151 c-65 -16 -175 -95 -175 -126 0 -6 3 -6 8 1 4 6 16 16 27
21 17 10 21 6 35 -35 18 -55 44 -72 113 -72 38 0 53 5 72 25 14 13 25 33 25
44 0 32 -19 74 -41 89 -27 19 -16 30 28 27 33 -2 35 -1 18 11 -10 8 -27 14
-36 14 -10 0 -23 2 -31 4 -7 2 -26 1 -43 -3z"/>
</g>
</svg>
