<?xml version="1.0" encoding="utf-8"?>
<!-- Generator: Adobe Illustrator 23.0.2, SVG Export Plug-In . SVG Version: 6.00 Build 0)  -->
<svg version="1.1" id="Layer_1" xmlns="http://www.w3.org/2000/svg" xmlns:xlink="http://www.w3.org/1999/xlink" x="0px" y="0px"
	 width="500px" height="500px" viewBox="0 0 500 500" style="enable-background:new 0 0 500 500;" xml:space="preserve">
<g>
	<path style="fill:#0085C7;" d="M311.35,473.44c-19.76,5.7-39.78,8.12-60.81,8.12C122.64,481.56,18.98,377.9,18.98,250
		c0-127.87,103.67-231.57,231.56-231.57c62.79,0,128.61,24.86,157.91,76.46c23.27,40.99,16.99,99.2-43.36,120.53
		c-38.04,13.47-81.6,18.01-111.16,45.51c-5.73,5.33-10.52,11.55-15.27,17.77c-4.82,6.25-7.04,16.46-11.83,22.71
		c-5.27,6.89-13.17,9.85-16.64,17.8c-8.69,19.9-3.66,44.99,12.04,60.02c-2.99-8.17-2.38-13.2-0.73-19.78
		c17.53-4.94,26.52-2.01,39.5,0.55c6.77,1.34,12.92,4.85,19.02,8.14c16.86,9.08,42.12,21.64,61.51,26.4
		c18.3,4.51,32.33,27.23,21.83,45.97C353.78,457.6,334.37,466.8,311.35,473.44z"/>
	<path style="fill:#0085C7;" d="M314.91,291.13c4.26,2.34,7.78,6.22,9.16,10.88c1.38,4.66,0.43,10.1-2.9,13.65
		c-3.65,3.9-9.49,5.09-14.78,4.33c-5.29-0.76-11.56-1.44-14.96-5.54c-2.74-3.35-3.73-8.84-3.6-12.84c0.05-1.79-1.94-2.92-3.47-1.96
		c-2.95,1.89-5.74,4-8.38,6.29l0.05-0.3c6.17-9.67,15.79-17.1,26.69-20.62c2.95-0.93,5.99-1.61,9.09-1.76
		c5.92-0.33,11.91,1.31,16.84,4.56c-4.46,0.05-8.94,0.13-13.42,0.18c-0.73,0-1.61,0.1-1.94,0.76
		C312.82,289.7,313.98,290.6,314.91,291.13z"/>
</g>
</svg>
